<svg width="109" height="141" viewBox="0 0 109 141" fill="none" xmlns="http://www.w3.org/2000/svg">
<path d="M79.1959 7.51666C78.24 8.96483 77.1517 10.3775 76.2863 11.8854C69.0602 24.6844 61.9004 37.5011 54.6743 50.3001C53.9285 51.627 52.9176 52.8829 51.7612 53.8867C51.204 54.3764 49.8032 54.569 49.2358 54.1683C48.6265 53.7918 48.3141 52.5717 48.3282 51.7232C48.3601 50.8085 48.825 49.8679 49.2964 49.0355C56.6821 35.6402 64.0259 22.2691 71.5507 9.0176C72.416 7.50965 74.5598 6.66409 76.0764 5.50835L79.1959 7.51666Z" fill="#FBB130"/>
<path d="M15.1882 1.11261C15.8479 1.96419 16.892 2.70581 17.1252 3.69159C20.5443 17.1789 24.0296 30.6841 27.0641 44.2814C27.647 46.7458 26.3428 49.6275 25.9159 52.2828C24.6173 49.8395 22.8258 47.5126 22.1039 44.9044C19.0513 33.8944 16.1068 22.878 13.4806 11.7338C12.6954 8.4339 13.0039 4.89461 12.8197 1.47176C13.5952 1.36013 14.3465 1.20648 15.122 1.09485L15.1882 1.11261Z" fill="#FBB130"/>
<path d="M78.295 136.993C77.0083 135.832 75.5181 134.899 74.4591 133.55C67.0284 124.172 59.5977 114.793 52.3948 105.227C51.3778 103.853 51.506 101.651 51.1124 99.805C52.7576 100.424 55.0262 100.57 55.9462 101.776C63.613 111.466 71.0277 121.302 78.4005 131.163C79.3447 132.41 79.4732 134.185 80.0217 135.716C79.4159 136.122 78.8765 136.546 78.2708 136.951L78.295 136.993Z" fill="#FBB130"/>
<path d="M108.279 78.4521C91.7685 77.7889 76.4987 80.0506 60.1527 78.5082C65.9956 72.3338 103.87 71.9788 108.279 78.4521Z" fill="#ffc100"/>
</svg>
